<svg xmlns="http://www.w3.org/2000/svg" width="512" height="512" viewBox="0 0 512 512">
  <path fill="#FFF" d="M128 32L128 0 16 0C7.163 0 0 7.163 0 16L0 128 32 128 32 54.56 180.64 203.2 203.2 180.64 54.56 32 128 32zM496 0L384 0 384 32 457.44 32 308.8 180.64 331.36 203.2 480 54.56 480 128 512 128 512 16C512 7.163 504.837 0 496 0zM480 457.44L331.36 308.8 308.8 331.36 457.44 480 384 480 384 512 496 512C504.837 512 512 504.837 512 496L512 384 480 384 480 457.44zM180.64 308.64L32 457.44 32 384 0 384 0 496C0 504.837 7.163 512 16 512L128 512 128 480 54.56 480 203.2 331.36 180.64 308.64z"/>
</svg>
